<svg width="31" height="30" viewBox="0 0 31 30" fill="none" xmlns="http://www.w3.org/2000/svg">
<rect x="0.5" width="30" height="30" rx="5" fill="#EFF7F0"/>
<path fill-rule="evenodd" clip-rule="evenodd" d="M24.175 15C24.175 15.3531 23.8888 15.6394 23.5356 15.6394L8.18864 15.6394C7.83549 15.6394 7.54921 15.3531 7.54921 15C7.54921 14.6468 7.83549 14.3605 8.18864 14.3605L23.5356 14.3605C23.8888 14.3605 24.175 14.6468 24.175 15Z" fill="#0C9548"/>
<path fill-rule="evenodd" clip-rule="evenodd" d="M12.0084 20.6067C11.7371 20.8327 11.3339 20.7961 11.1079 20.5248L7.07224 15.6822C6.74288 15.287 6.74288 14.7129 7.07224 14.3177L11.1079 9.47514C11.3339 9.20385 11.7371 9.1672 12.0084 9.39329C12.2797 9.61938 12.3164 10.0226 12.0903 10.2939L8.1684 15L12.0903 19.7061C12.3164 19.9774 12.2797 20.3806 12.0084 20.6067Z" fill="#0C9548"/>
</svg>
