<svg width="31" height="30" viewBox="0 0 31 30" fill="none" xmlns="http://www.w3.org/2000/svg">
<rect x="0.5" width="30" height="30" rx="5" fill="#0C9548"/>
<path fill-rule="evenodd" clip-rule="evenodd" d="M6.82471 15C6.82471 14.6469 7.11099 14.3606 7.46414 14.3606L22.8111 14.3606C23.1643 14.3606 23.4505 14.6469 23.4505 15C23.4505 15.3532 23.1643 15.6395 22.8111 15.6395L7.46414 15.6395C7.11099 15.6395 6.82471 15.3532 6.82471 15Z" fill="white"/>
<path fill-rule="evenodd" clip-rule="evenodd" d="M18.9913 9.39335C19.2626 9.16726 19.6658 9.20391 19.8919 9.4752L23.9275 14.3178C24.2569 14.713 24.2569 15.2871 23.9275 15.6823L19.8919 20.5249C19.6658 20.7961 19.2626 20.8328 18.9913 20.6067C18.72 20.3806 18.6834 19.9774 18.9095 19.7061L22.8314 15L18.9095 10.2939C18.6834 10.0226 18.72 9.61943 18.9913 9.39335Z" fill="white"/>
</svg>
