<svg width="68" height="68" viewBox="0 0 68 68" fill="none" xmlns="http://www.w3.org/2000/svg">
<g opacity="0.15">
<path fill-rule="evenodd" clip-rule="evenodd" d="M31.625 7C18.025 7 7 18.025 7 31.625C7 45.225 18.025 56.25 31.625 56.25C45.225 56.25 56.25 45.225 56.25 31.625C56.25 18.025 45.225 7 31.625 7ZM0 31.625C0 14.159 14.159 0 31.625 0C49.091 0 63.25 14.159 63.25 31.625C63.25 49.091 49.091 63.25 31.625 63.25C14.159 63.25 0 49.091 0 31.625Z" fill="white"/>
<path fill-rule="evenodd" clip-rule="evenodd" d="M49.5251 49.5251C50.892 48.1583 53.108 48.1583 54.4749 49.5251L66.9749 62.0251C68.3417 63.392 68.3417 65.608 66.9749 66.9749C65.608 68.3417 63.392 68.3417 62.0251 66.9749L49.5251 54.4749C48.1583 53.108 48.1583 50.892 49.5251 49.5251Z" fill="white"/>
</g>
</svg>
