<svg width="55" height="75" viewBox="0 0 55 75" fill="none" xmlns="http://www.w3.org/2000/svg">
<path opacity="0.15" d="M51.1364 68.1818C53.0192 68.1818 54.5455 69.7081 54.5455 71.5909C54.5455 73.4737 53.0192 75 51.1364 75H3.40909C1.5263 75 0 73.4737 0 71.5909C0 69.7081 1.5263 68.1818 3.40909 68.1818H51.1364ZM27.2727 0C29.1555 0 30.6818 1.5263 30.6818 3.40909V49.7216L48.7258 31.6803C50.0571 30.349 52.2156 30.349 53.547 31.6803C54.8783 33.0117 54.8783 35.1702 53.547 36.5015L29.6833 60.3651C28.352 61.6965 26.1935 61.6965 24.8621 60.3651L0.9985 36.5015C-0.332833 35.1702 -0.332833 33.0117 0.9985 31.6803C2.32983 30.349 4.48835 30.349 5.81968 31.6803L23.8636 49.7216V3.40909C23.8636 1.5263 25.3899 0 27.2727 0Z" fill="white"/>
</svg>
